# Blender v2.93.0 OBJ File: 'clock.blend'
# www.blender.org
mtllib hour_hand.mtl
o wskazowka_h_Prostokąt.001
v 0.562949 2.207841 1.062950
v -0.006375 2.227929 1.062950
v 0.562744 2.164689 1.062950
v -0.006729 2.153403 1.062950
v 0.562949 2.207841 1.050231
v -0.006375 2.227929 1.050231
v 0.562744 2.164689 1.050231
v -0.006729 2.153403 1.050231
vt 0.000000 0.000000
vt 1.000000 1.000000
vt 0.000000 1.000000
vt 0.000000 0.000000
vt 1.000000 1.000000
vt 1.000000 0.000000
vt 0.000000 1.000000
vt 1.000000 0.000000
vn -0.0000 0.0000 1.0000
vn 0.0000 -0.0000 -1.0000
vn 1.0000 -0.0048 0.0000
vn 0.0198 -0.9998 0.0000
vn 0.0353 0.9994 0.0000
vn -1.0000 0.0048 0.0000
vn 1.0000 -0.0047 0.0000
usemtl None
s off
f 1/1/1 4/2/1 3/3/1
f 5/4/2 8/5/2 6/6/2
f 7/7/3 1/1/3 3/3/3
f 8/5/4 3/3/4 4/2/4
f 5/4/5 2/8/5 1/1/5
f 6/6/6 4/2/6 2/8/6
f 1/1/1 2/8/1 4/2/1
f 5/4/2 7/7/2 8/5/2
f 7/7/7 5/4/7 1/1/7
f 8/5/4 7/7/4 3/3/4
f 5/4/5 6/6/5 2/8/5
f 6/6/6 8/5/6 4/2/6
