# Blender v2.93.0 OBJ File: 'clock.blend'
# www.blender.org
mtllib minute_hand.mtl
o wskazowka_min_Prostokąt.002
v -0.021068 3.114793 1.085585
v -0.036754 2.188576 1.085585
v 0.022085 3.114793 1.085585
v 0.037772 2.188576 1.085585
v -0.021068 3.114793 1.072865
v -0.036754 2.188576 1.072865
v 0.022085 3.114793 1.072865
v 0.037772 2.188576 1.072865
vt 1.000000 0.000000
vt 0.000000 1.000000
vt 0.000000 0.000000
vt 0.000000 1.000000
vt 1.000000 0.000000
vt 0.000000 0.000000
vt 1.000000 1.000000
vt 1.000000 1.000000
vn 0.0000 0.0000 1.0000
vn 0.0000 0.0000 -1.0000
vn 0.0000 1.0000 0.0000
vn 0.9999 0.0169 0.0000
vn -0.9999 0.0169 0.0000
vn 0.0000 -1.0000 0.0000
usemtl None
s off
f 2/1/1 3/2/1 1/3/1
f 7/4/2 6/5/2 5/6/2
f 7/4/3 1/3/3 3/2/3
f 8/7/4 3/2/4 4/8/4
f 5/6/5 2/1/5 1/3/5
f 6/5/6 4/8/6 2/1/6
f 2/1/1 4/8/1 3/2/1
f 7/4/2 8/7/2 6/5/2
f 7/4/3 5/6/3 1/3/3
f 8/7/4 7/4/4 3/2/4
f 5/6/5 6/5/5 2/1/5
f 6/5/6 8/7/6 4/8/6
